# xmcd CD database file
# Copyright 1993-1996 (C) Ti Kan
#
# Track frame offsets:
#    182
#    28727
#    39387
#    64300
#    75507
#    77417
#    101702
#    112257
#    124822
#    129995
#    138517
#    169347
#    217225
#
# Disc length: 3049 seconds
#
# Revision: 0
# Processed by: cddbd v1.4b41PL1 Copyright (c) Steve Scherf et al.
# Submitted via: MyCDplayer 2.4.0c  (wjohn@fix.net)
#
DISCID=bb0be70d
DTITLE=Various Artist - 
DTITLE=Blues In The Missippi Night
DYEAR=1900
DGENRE=
TTITLE0=Life Is Like That
TTITLE1=Long Meter Hymn
TTITLE2=I Can Hear My Name Ringin'
TTITLE3=Ratty Section
TTITLE4=I'm Going To Memphis
TTITLE5=Have You Ever Been To Nashville
TTITLE6=Bama's Stackerlee
TTITLE7=Oh 'Berta
TTITLE8=Murderer's Home
TTITLE9=Don't You Hear Your Mother Calling
TTITLE10=Slow Lonesome Blues
TTITLE11=Another Man Done Gone
TTITLE12=Fast Boogie
EXTD=w/Memphis Slim, Big Bill Broonzy, Sonny Boy Williamson
EXTT0=
EXTT1=
EXTT2=
EXTT3=
EXTT4=
EXTT5=
EXTT6=
EXTT7=
EXTT8=
EXTT9=
EXTT10=
EXTT11=
EXTT12=
PLAYORDER=
